# xmcd
#
# Track frame offsets: 
#        150
#        27870
#        58555
#        86087
#        112605
#        130360
#        155002
#        174732
#        190140
#
# Disc length: 2796 seconds
#
# Revision: 0
# Processed by: cddbd v1.5.2PL0 Copyright (c) Steve Scherf et al.
# Submitted via: ExactAudioCopy v0.99pb5
#
DISCID=700aea09
DTITLE=Eric Clapton  - August Outtakes and Different Mixes vol 2
DYEAR=1900
DGENRE=
TTITLE0=Tearing us apart
TTITLE1=Grand Illusion
TTITLE2=Grand Illusion
TTITLE3=Wanna make love to you
TTITLE4=Run
TTITLE5=Miss you
TTITLE6=Hung up on your love
TTITLE7=It's in the way that you use it
TTITLE8=Miss you
EXTD=
EXTT0=
EXTT1=
EXTT2=
EXTT3=
EXTT4=
EXTT5=
EXTT6=
EXTT7=
EXTT8=
PLAYORDER=
